<?xml version="1.0" standalone="no"?>
<!DOCTYPE svg PUBLIC "-//W3C//DTD SVG 20010904//EN"
 "http://www.w3.org/TR/2001/REC-SVG-20010904/DTD/svg10.dtd">
<svg version="1.0" xmlns="http://www.w3.org/2000/svg"
 width="500.000000pt" height="500.000000pt" viewBox="0 0 500.000000 500.000000"
 preserveAspectRatio="xMidYMid meet">
<metadata>
Created by potrace 1.14, written by Peter Selinger 2001-2017
</metadata>
<g transform="translate(0.000000,500.000000) scale(0.100000,-0.100000)"
fill="#000000" stroke="none">
<path d="M815 4364 c-138 -27 -186 -46 -221 -87 -24 -28 -24 -29 -24 -263 0
-132 4 -233 9 -230 5 3 10 -112 13 -260 5 -305 -4 -280 108 -315 107 -34 250
-36 480 -5 210 28 285 32 275 16 -3 -5 -16 -11 -28 -11 -12 -1 -2 -6 23 -11
25 -5 244 -12 488 -15 l443 -5 -3 -72 -3 -71 -185 -6 c-102 -4 -324 -12 -495
-19 -208 -9 -372 -10 -500 -4 -104 5 -255 9 -335 9 -132 0 -149 -2 -187 -23
-23 -12 -47 -31 -52 -41 -7 -11 -8 -64 -4 -135 4 -75 0 -213 -12 -386 -25
-359 -10 -477 67 -533 26 -19 50 -20 867 -21 l841 -1 0 -92 0 -93 -97 0 c-54
0 -179 -9 -278 -20 -238 -26 -285 -26 -319 1 l-27 21 -127 -21 c-156 -26 -196
-26 -398 -2 -250 31 -314 34 -378 21 -154 -32 -187 -150 -147 -539 24 -230 26
-351 10 -434 -14 -68 -2 -105 45 -142 17 -14 37 -30 44 -36 10 -8 138 -8 475
0 599 14 1650 31 2487 39 l665 7 12 65 c7 36 18 152 24 258 13 204 3 482 -24
637 l-12 70 -85 8 c-47 4 -373 8 -725 7 -534 0 -907 9 -921 22 -8 9 -16 256
-8 260 5 2 212 1 459 -3 419 -7 1005 2 1200 19 l80 7 12 60 c21 105 26 284 13
495 -7 113 -15 261 -19 330 l-6 125 -65 8 c-36 5 -400 10 -810 11 -410 1 -775
6 -812 10 l-68 9 0 111 c0 61 3 121 6 134 l6 22 728 0 c693 0 987 6 1009 19
26 17 35 146 36 563 2 387 1 428 -14 432 -33 10 -142 27 -272 42 -109 14 -286
17 -959 21 -548 4 -816 9 -797 15 34 12 35 28 3 28 -14 0 -28 5 -31 10 -12 19
-37 11 -30 -9 7 -23 -19 -41 -58 -41 -43 0 -127 30 -127 45 0 12 -22 15 -124
15 -116 0 -124 -1 -119 -19 5 -21 -12 -27 -112 -42 -63 -9 -135 -2 -135 12 0
5 23 9 50 9 55 0 65 14 23 31 -22 9 -69 5 -210 -16 -213 -32 -368 -32 -463 2
l-55 19 -120 -22z m387 -237 l288 -2 25 -26 26 -26 97 24 c135 32 155 31 188
-12 34 -45 71 -47 102 -5 21 28 62 42 62 20 0 -5 -4 -10 -10 -10 -5 0 -10 -7
-10 -15 0 -9 9 -15 25 -15 38 0 95 27 95 44 0 26 19 18 26 -10 l7 -26 241 4
c214 4 248 7 306 26 36 12 66 22 68 22 1 0 -2 -9 -8 -21 -7 -11 -10 -22 -8
-24 3 -4 429 4 1174 20 l262 5 7 -207 c7 -184 3 -438 -7 -448 -16 -16 -3002
-51 -3213 -38 l-130 8 -6 100 c-4 55 -7 218 -8 362 l-1 263 58 -6 c31 -3 186
-6 344 -7z m3008 -1688 l0 -370 -42 5 c-24 3 -124 8 -223 11 -211 7 -430 21
-534 35 -50 7 -78 7 -85 0 -5 -5 -25 -10 -43 -10 -24 0 -33 -4 -33 -17 0 -12
-12 -5 -43 25 -49 48 -74 52 -107 17 -28 -30 -64 -34 -56 -7 6 17 2 18 -50 11
-31 -4 -57 -9 -58 -11 -2 -2 -8 -11 -13 -21 -9 -17 -12 -15 -32 18 -19 32 -25
36 -49 31 -15 -4 -119 -11 -232 -15 -128 -6 -227 -15 -263 -25 -42 -12 -64
-13 -78 -6 -49 27 -476 28 -1196 4 l-223 -7 0 321 0 322 22 4 c21 5 175 12
653 32 229 10 1186 20 1993 22 l692 2 0 -371z m0 -1330 l0 -370 -102 5 c-57 4
-202 11 -323 17 -121 6 -272 16 -335 23 -65 8 -119 9 -124 5 -6 -5 -22 -9 -38
-9 -15 0 -31 -7 -36 -16 -7 -13 -15 -8 -50 25 -49 47 -69 51 -102 16 -30 -32
-64 -34 -55 -4 6 18 5 19 -13 10 -12 -6 -36 -11 -56 -11 -24 0 -39 -6 -50 -21
-15 -22 -15 -22 -37 15 -18 30 -26 36 -43 31 -12 -3 -113 -10 -226 -15 -184
-8 -265 -19 -334 -46 -13 -5 -17 -4 -12 4 4 7 -10 14 -41 19 -64 11 -725 10
-1090 -1 l-293 -9 0 321 0 320 62 6 c306 27 792 39 1933 45 638 4 1206 8 1263
9 l102 2 0 -371z"/>
<path d="M1144 3906 c-66 -29 -93 -95 -74 -177 15 -60 34 -71 130 -72 112 0
210 64 194 128 -11 45 -83 110 -136 123 -59 15 -75 15 -114 -2z"/>
<path d="M1852 3898 c-19 -11 -38 -32 -43 -45 -15 -40 -10 -104 12 -150 l21
-43 68 0 c74 0 127 15 187 53 36 23 39 27 35 65 -4 38 -9 44 -79 91 -64 43
-82 51 -121 51 -31 0 -59 -8 -80 -22z"/>
<path d="M3620 3873 c-30 -1 -246 -10 -480 -18 -546 -19 -535 -18 -551 -57
-12 -29 -11 -32 23 -64 43 -39 77 -49 223 -70 61 -9 114 -20 119 -25 6 -6 5
-9 -3 -9 -7 0 -9 -4 -6 -10 8 -13 27 -13 62 1 18 7 141 12 343 13 331 2 386 8
546 57 64 20 64 20 64 58 0 25 -10 53 -31 84 l-31 47 -111 -2 c-62 -1 -137 -3
-167 -5z"/>
<path d="M1162 2580 c-75 -18 -112 -88 -93 -177 15 -65 33 -76 121 -77 117 -2
220 61 205 123 -22 87 -139 153 -233 131z"/>
<path d="M1880 2582 c-29 -13 -57 -37 -68 -59 -18 -33 -14 -103 8 -150 21 -47
26 -49 125 -44 52 3 116 26 163 60 24 16 27 25 24 58 -4 41 -16 52 -121 115
-45 27 -97 35 -131 20z"/>
<path d="M3670 2543 c-25 -1 -234 -9 -465 -18 -231 -8 -461 -18 -512 -21 -88
-6 -92 -8 -103 -34 -8 -20 -9 -34 -1 -48 19 -36 108 -71 221 -87 124 -18 159
-26 143 -32 -7 -3 -13 -9 -13 -14 0 -14 53 -11 76 5 18 13 47 13 190 4 257
-15 557 12 709 65 39 14 40 16 39 60 0 33 -8 57 -28 86 l-29 41 -91 -2 c-50
-1 -111 -3 -136 -5z"/>
<path d="M3253 2133 c9 -2 23 -2 30 0 6 3 -1 5 -18 5 -16 0 -22 -2 -12 -5z"/>
<path d="M1864 1241 c-18 -11 -39 -30 -48 -42 -37 -53 -4 -192 49 -205 46 -11
133 7 206 43 50 25 69 39 65 50 -3 8 -6 27 -6 41 -1 22 -13 35 -63 69 -101 68
-147 78 -203 44z"/>
<path d="M1120 1228 c-51 -35 -68 -89 -49 -159 13 -50 17 -55 54 -67 85 -29
210 5 259 71 l21 28 -25 46 c-34 64 -86 96 -164 101 -51 3 -66 0 -96 -20z"/>
<path d="M3730 1214 c-19 -2 -231 -11 -470 -19 -239 -9 -486 -18 -547 -22
l-112 -6 -12 -35 c-11 -35 -10 -37 22 -64 41 -34 102 -53 224 -69 81 -10 149
-27 118 -28 -7 -1 -13 -5 -13 -11 0 -15 61 -12 79 3 13 11 50 12 196 3 270
-15 542 11 700 67 29 10 41 20 43 38 5 34 -14 90 -43 122 -22 24 -30 27 -87
25 -35 -1 -79 -3 -98 -4z"/>
<path d="M3253 803 c9 -2 23 -2 30 0 6 3 -1 5 -18 5 -16 0 -22 -2 -12 -5z"/>
</g>
</svg>
